<svg width="56" height="56" viewBox="0 0 56 56" fill="none" xmlns="http://www.w3.org/2000/svg">
<path id="Star 1" d="M28 0L33.4206 4.25076L40.1487 2.77287L43.1882 8.95458L49.8913 10.5423L49.9476 17.4306L55.298 21.7694L52.36 28L55.298 34.2306L49.9476 38.5694L49.8913 45.4577L43.1882 47.0454L40.1487 53.2271L33.4206 51.7492L28 56L22.5794 51.7492L15.8513 53.2271L12.8118 47.0454L6.10872 45.4577L6.0524 38.5694L0.702019 34.2306L3.64 28L0.702019 21.7694L6.0524 17.4306L6.10872 10.5423L12.8118 8.95458L15.8513 2.77287L22.5794 4.25076L28 0Z" fill="url(#paint0_linear_1116_4024)"/>
<defs>
<linearGradient id="paint0_linear_1116_4024" x1="0" y1="0" x2="58.147" y2="2.32588" gradientUnits="userSpaceOnUse">
<stop stop-color="#87FB07"/>
<stop offset="1" stop-color="#16E233"/>
</linearGradient>
</defs>
</svg>
