<svg width="746" height="253" viewBox="0 0 746 253" fill="none" xmlns="http://www.w3.org/2000/svg">
<path d="M49.7333 50.5115H0V252.558H348.133V202.046H49.7333V50.5115Z" fill="#83F35D"/>
<path d="M348.133 0H49.7333V50.5115H348.133V0Z" fill="#83F35D"/>
<path d="M397.867 0V50.5115H696.267V101.023H447.6V151.535H696.267V202.046H746V0H397.867Z" fill="#83F35D"/>
<path d="M696.267 202.046H397.867V252.558H696.267V202.046Z" fill="#83F35D"/>
<path d="M102.288 104.04C101.123 104.04 100.107 103.815 99.2417 103.366C98.3764 102.917 97.7141 102.271 97.2549 101.426C96.7957 100.564 96.5662 99.5493 96.5662 98.3817V89.4903C96.5662 88.3228 96.7957 87.3169 97.2549 86.4726C97.7141 85.6104 98.3764 84.9548 99.2417 84.5057C100.107 84.0567 101.123 83.8322 102.288 83.8322C103.436 83.8322 104.434 84.0657 105.282 84.5327C106.147 84.9818 106.809 85.6374 107.268 86.4996C107.728 87.3438 107.957 88.3407 107.957 89.4903H105.573C105.573 88.3767 105.282 87.5145 104.699 86.9037C104.134 86.293 103.33 85.9876 102.288 85.9876C101.246 85.9876 100.425 86.293 99.8245 86.9037C99.2417 87.5145 98.9503 88.3677 98.9503 89.4634V98.3817C98.9503 99.4954 99.2417 100.358 99.8245 100.968C100.407 101.579 101.229 101.884 102.288 101.884C103.33 101.884 104.134 101.579 104.699 100.968C105.282 100.358 105.573 99.4954 105.573 98.3817H107.957C107.957 99.5313 107.728 100.537 107.268 101.399C106.809 102.244 106.147 102.899 105.282 103.366C104.434 103.815 103.436 104.04 102.288 104.04Z" fill="#83F35D"/>
<path d="M118.066 104.04C116.918 104.04 115.92 103.815 115.073 103.366C114.225 102.917 113.572 102.271 113.112 101.426C112.671 100.564 112.45 99.5493 112.45 98.3817V94.3402C112.45 93.1726 112.671 92.1667 113.112 91.3225C113.572 90.4603 114.225 89.8047 115.073 89.3556C115.92 88.9065 116.918 88.682 118.066 88.682C119.214 88.682 120.212 88.9065 121.06 89.3556C121.907 89.8047 122.552 90.4603 122.994 91.3225C123.453 92.1667 123.682 93.1636 123.682 94.3132V98.3817C123.682 99.5493 123.453 100.564 122.994 101.426C122.552 102.271 121.907 102.917 121.06 103.366C120.212 103.815 119.214 104.04 118.066 104.04ZM118.066 101.884C119.108 101.884 119.903 101.588 120.45 100.995C121.016 100.385 121.298 99.5134 121.298 98.3817V94.3402C121.298 93.2086 121.016 92.3464 120.45 91.7536C119.903 91.1429 119.108 90.8375 118.066 90.8375C117.024 90.8375 116.221 91.1429 115.656 91.7536C115.108 92.3464 114.834 93.2086 114.834 94.3402V98.3817C114.834 99.5134 115.108 100.385 115.656 100.995C116.221 101.588 117.024 101.884 118.066 101.884Z" fill="#83F35D"/>
<path d="M133.103 104.04C131.637 104.04 130.471 103.546 129.606 102.558C128.758 101.57 128.334 100.232 128.334 98.5434V94.2055C128.334 92.499 128.758 91.1519 129.606 90.1639C130.471 89.176 131.637 88.682 133.103 88.682C134.304 88.682 135.266 89.0143 135.99 89.6789C136.714 90.3435 137.076 91.2327 137.076 92.3464L136.599 91.7805H137.129L137.076 88.4126V84.1016H139.46V103.77H137.076V100.941H136.599L137.076 100.376C137.076 101.507 136.714 102.405 135.99 103.07C135.284 103.717 134.321 104.04 133.103 104.04ZM133.897 101.938C134.886 101.938 135.663 101.624 136.229 100.995C136.794 100.367 137.076 99.4954 137.076 98.3817V94.3402C137.076 93.2265 136.794 92.3553 136.229 91.7267C135.663 91.098 134.886 90.7836 133.897 90.7836C132.891 90.7836 132.105 91.098 131.54 91.7267C130.992 92.3374 130.718 93.2086 130.718 94.3402V98.3817C130.718 99.5134 130.992 100.394 131.54 101.022C132.105 101.633 132.891 101.938 133.897 101.938Z" fill="#83F35D"/>
<path d="M149.834 104.04C148.704 104.04 147.715 103.806 146.867 103.339C146.02 102.872 145.366 102.217 144.907 101.372C144.448 100.51 144.218 99.5134 144.218 98.3817V94.3402C144.218 93.2086 144.448 92.2206 144.907 91.3764C145.366 90.5142 146.02 89.8496 146.867 89.3826C147.715 88.9155 148.704 88.682 149.834 88.682C150.965 88.682 151.954 88.9155 152.801 89.3826C153.649 89.8496 154.302 90.5142 154.762 91.3764C155.221 92.2206 155.45 93.2086 155.45 94.3402V96.9537H146.55V98.3817C146.55 99.5673 146.823 100.465 147.371 101.076C147.936 101.687 148.757 101.992 149.834 101.992C150.753 101.992 151.477 101.831 152.007 101.507C152.554 101.166 152.89 100.663 153.013 99.9984H155.397C155.238 101.238 154.656 102.226 153.649 102.962C152.642 103.681 151.371 104.04 149.834 104.04ZM153.119 94.3402C153.119 93.1547 152.837 92.2565 152.271 91.6458C151.724 91.0171 150.912 90.7028 149.834 90.7028C148.757 90.7028 147.936 91.0171 147.371 91.6458C146.823 92.2565 146.55 93.1547 146.55 94.3402V95.1216H153.305L153.119 95.3371V94.3402Z" fill="#83F35D"/>
<path d="M102.288 134.092C101.123 134.092 100.107 133.868 99.2417 133.419C98.3764 132.97 97.7141 132.323 97.2549 131.479C96.7957 130.617 96.5662 129.602 96.5662 128.434V119.543C96.5662 118.375 96.7957 117.369 97.2549 116.525C97.7141 115.663 98.3764 115.007 99.2417 114.558C100.107 114.109 101.123 113.885 102.288 113.885C103.436 113.885 104.434 114.118 105.282 114.585C106.147 115.034 106.809 115.69 107.268 116.552C107.728 117.396 107.957 118.393 107.957 119.543H105.573C105.573 118.429 105.282 117.567 104.699 116.956C104.134 116.346 103.33 116.04 102.288 116.04C101.246 116.04 100.425 116.346 99.8245 116.956C99.2417 117.567 98.9503 118.42 98.9503 119.516V128.434C98.9503 129.548 99.2417 130.41 99.8245 131.021C100.407 131.632 101.229 131.937 102.288 131.937C103.33 131.937 104.134 131.632 104.699 131.021C105.282 130.41 105.573 129.548 105.573 128.434H107.957C107.957 129.584 107.728 130.59 107.268 131.452C106.809 132.296 106.147 132.952 105.282 133.419C104.434 133.868 103.436 134.092 102.288 134.092Z" fill="#83F35D"/>
<path d="M116.715 134.092C115.232 134.092 114.048 133.697 113.165 132.907C112.282 132.117 111.841 131.048 111.841 129.701C111.841 128.282 112.274 127.168 113.139 126.36C114.022 125.551 115.223 125.147 116.742 125.147H121.245V123.719C121.245 122.821 120.963 122.129 120.397 121.645C119.85 121.142 119.082 120.89 118.093 120.89C117.227 120.89 116.512 121.07 115.947 121.429C115.382 121.788 115.055 122.282 114.967 122.911H112.583C112.742 121.653 113.324 120.648 114.331 119.893C115.338 119.139 116.6 118.762 118.119 118.762C119.815 118.762 121.157 119.202 122.146 120.082C123.135 120.944 123.629 122.129 123.629 123.638V133.823H121.298V130.994H120.742L121.298 130.698C121.298 131.721 120.865 132.548 120 133.176C119.135 133.787 118.04 134.092 116.715 134.092ZM117.272 132.179C118.437 132.179 119.391 131.901 120.133 131.344C120.874 130.769 121.245 130.024 121.245 129.108V127.006H116.795C116 127.006 115.373 127.231 114.914 127.68C114.455 128.129 114.225 128.749 114.225 129.539C114.225 130.365 114.499 131.012 115.046 131.479C115.594 131.946 116.336 132.179 117.272 132.179Z" fill="#83F35D"/>
<path d="M128.944 133.823V119.004H131.275V121.833H131.831L131.063 123.584C131.063 121.986 131.398 120.782 132.069 119.974C132.758 119.148 133.774 118.735 135.116 118.735C136.652 118.735 137.871 119.229 138.772 120.216C139.69 121.186 140.149 122.507 140.149 124.177V125.066H137.765V124.393C137.765 123.243 137.482 122.354 136.917 121.725C136.37 121.097 135.584 120.782 134.56 120.782C133.553 120.782 132.758 121.106 132.175 121.752C131.61 122.381 131.328 123.261 131.328 124.393V133.823H128.944Z" fill="#83F35D"/>
<path d="M149.834 134.092C148.704 134.092 147.715 133.859 146.867 133.392C146.02 132.925 145.366 132.269 144.907 131.425C144.448 130.563 144.218 129.566 144.218 128.434V124.393C144.218 123.261 144.448 122.273 144.907 121.429C145.366 120.567 146.02 119.902 146.867 119.435C147.715 118.968 148.704 118.735 149.834 118.735C150.965 118.735 151.954 118.968 152.801 119.435C153.649 119.902 154.302 120.567 154.762 121.429C155.221 122.273 155.45 123.261 155.45 124.393V127.006H146.55V128.434C146.55 129.62 146.823 130.518 147.371 131.129C147.936 131.739 148.757 132.045 149.834 132.045C150.753 132.045 151.477 131.883 152.007 131.56C152.554 131.218 152.89 130.716 153.013 130.051H155.397C155.238 131.29 154.656 132.278 153.649 133.015C152.642 133.733 151.371 134.092 149.834 134.092ZM153.119 124.393C153.119 123.207 152.837 122.309 152.271 121.698C151.724 121.07 150.912 120.755 149.834 120.755C148.757 120.755 147.936 121.07 147.371 121.698C146.823 122.309 146.55 123.207 146.55 124.393V125.174H153.305L153.119 125.39V124.393Z" fill="#83F35D"/>
<path d="M165.718 134.092C164.588 134.092 163.599 133.859 162.751 133.392C161.904 132.925 161.25 132.269 160.791 131.425C160.332 130.563 160.102 129.566 160.102 128.434V124.393C160.102 123.261 160.332 122.273 160.791 121.429C161.25 120.567 161.904 119.902 162.751 119.435C163.599 118.968 164.588 118.735 165.718 118.735C166.849 118.735 167.838 118.968 168.685 119.435C169.533 119.902 170.187 120.567 170.646 121.429C171.105 122.273 171.334 123.261 171.334 124.393V127.006H162.434V128.434C162.434 129.62 162.707 130.518 163.255 131.129C163.82 131.739 164.641 132.045 165.718 132.045C166.637 132.045 167.361 131.883 167.891 131.56C168.438 131.218 168.774 130.716 168.897 130.051H171.281C171.123 131.29 170.54 132.278 169.533 133.015C168.526 133.733 167.255 134.092 165.718 134.092ZM169.003 124.393C169.003 123.207 168.721 122.309 168.156 121.698C167.608 121.07 166.796 120.755 165.718 120.755C164.641 120.755 163.82 121.07 163.255 121.698C162.707 122.309 162.434 123.207 162.434 124.393V125.174H169.189L169.003 125.39V124.393Z" fill="#83F35D"/>
<path d="M176.596 133.823V119.004H178.927V121.833H179.483L178.715 123.584C178.715 121.986 179.051 120.782 179.722 119.974C180.41 119.148 181.426 118.735 182.768 118.735C184.305 118.735 185.523 119.229 186.424 120.216C187.342 121.186 187.801 122.507 187.801 124.177V125.066H185.417V124.393C185.417 123.243 185.135 122.354 184.569 121.725C184.022 121.097 183.236 120.782 182.212 120.782C181.205 120.782 180.41 121.106 179.828 121.752C179.262 122.381 178.98 123.261 178.98 124.393V133.823H176.596Z" fill="#83F35D"/>
<path d="M102.288 164.145C101.123 164.145 100.107 163.921 99.2417 163.471C98.3764 163.022 97.7141 162.376 97.2549 161.532C96.7957 160.669 96.5662 159.654 96.5662 158.487V149.595C96.5662 148.428 96.7957 147.422 97.2549 146.578C97.7141 145.716 98.3764 145.06 99.2417 144.611C100.107 144.162 101.123 143.937 102.288 143.937C103.436 143.937 104.434 144.171 105.282 144.638C106.147 145.087 106.809 145.743 107.268 146.605C107.728 147.449 107.957 148.446 107.957 149.595H105.573C105.573 148.482 105.282 147.62 104.699 147.009C104.134 146.398 103.33 146.093 102.288 146.093C101.246 146.093 100.425 146.398 99.8245 147.009C99.2417 147.62 98.9503 148.473 98.9503 149.569V158.487C98.9503 159.601 99.2417 160.463 99.8245 161.073C100.407 161.684 101.229 161.99 102.288 161.99C103.33 161.99 104.134 161.684 104.699 161.073C105.282 160.463 105.573 159.601 105.573 158.487H107.957C107.957 159.636 107.728 160.642 107.268 161.505C106.809 162.349 106.147 163.004 105.282 163.471C104.434 163.921 103.436 164.145 102.288 164.145Z" fill="#83F35D"/>
<path d="M113.06 163.876V149.057H115.391V151.886H115.947L115.179 153.637C115.179 152.038 115.514 150.835 116.185 150.027C116.874 149.2 117.89 148.787 119.232 148.787C120.768 148.787 121.987 149.281 122.888 150.269C123.806 151.239 124.265 152.559 124.265 154.23V155.119H121.881V154.445C121.881 153.296 121.598 152.407 121.033 151.778C120.486 151.149 119.7 150.835 118.676 150.835C117.669 150.835 116.874 151.158 116.291 151.805C115.726 152.434 115.444 153.314 115.444 154.445V163.876H113.06Z" fill="#83F35D"/>
<path d="M133.95 164.145C132.82 164.145 131.831 163.912 130.983 163.445C130.136 162.977 129.482 162.322 129.023 161.478C128.564 160.615 128.334 159.619 128.334 158.487V154.445C128.334 153.314 128.564 152.326 129.023 151.482C129.482 150.619 130.136 149.955 130.983 149.488C131.831 149.021 132.82 148.787 133.95 148.787C135.081 148.787 136.07 149.021 136.917 149.488C137.765 149.955 138.418 150.619 138.878 151.482C139.337 152.326 139.566 153.314 139.566 154.445V157.059H130.665V158.487C130.665 159.672 130.939 160.571 131.487 161.181C132.052 161.792 132.873 162.097 133.95 162.097C134.869 162.097 135.593 161.936 136.123 161.612C136.67 161.271 137.006 160.768 137.129 160.103H139.513C139.354 161.343 138.772 162.331 137.765 163.067C136.758 163.786 135.487 164.145 133.95 164.145ZM137.235 154.445C137.235 153.26 136.953 152.362 136.387 151.751C135.84 151.122 135.028 150.808 133.95 150.808C132.873 150.808 132.052 151.122 131.487 151.751C130.939 152.362 130.665 153.26 130.665 154.445V155.227H137.421L137.235 155.442V154.445Z" fill="#83F35D"/>
<path d="M148.483 164.145C147 164.145 145.817 163.75 144.934 162.96C144.051 162.169 143.609 161.1 143.609 159.753C143.609 158.334 144.042 157.221 144.907 156.412C145.79 155.604 146.991 155.2 148.51 155.2H153.013V153.772C153.013 152.874 152.731 152.182 152.166 151.697C151.618 151.194 150.85 150.943 149.861 150.943C148.995 150.943 148.28 151.122 147.715 151.482C147.15 151.841 146.823 152.335 146.735 152.963H144.351C144.51 151.706 145.093 150.7 146.099 149.946C147.106 149.191 148.369 148.814 149.887 148.814C151.583 148.814 152.925 149.254 153.914 150.134C154.903 150.997 155.397 152.182 155.397 153.691V163.876H153.066V161.047H152.51L153.066 160.75C153.066 161.774 152.634 162.6 151.768 163.229C150.903 163.84 149.808 164.145 148.483 164.145ZM149.04 162.232C150.205 162.232 151.159 161.954 151.901 161.397C152.642 160.822 153.013 160.077 153.013 159.16V157.059H148.563C147.768 157.059 147.141 157.283 146.682 157.732C146.223 158.182 145.993 158.801 145.993 159.592C145.993 160.418 146.267 161.064 146.814 161.532C147.362 161.999 148.104 162.232 149.04 162.232Z" fill="#83F35D"/>
<path d="M167.308 163.876C166.054 163.876 165.074 163.534 164.367 162.852C163.679 162.169 163.334 161.208 163.334 159.969V151.266H159.228V149.057H163.334V145.015H165.718V149.057H171.546V151.266H165.718V159.969C165.718 160.544 165.842 160.975 166.089 161.262C166.354 161.532 166.76 161.666 167.308 161.666H171.281V163.876H167.308Z" fill="#83F35D"/>
<path d="M175.775 163.876V161.666H180.94V151.266H176.437V149.057H183.324V161.666H188.225V163.876H175.775ZM181.602 146.497C181.073 146.497 180.649 146.353 180.331 146.066C180.031 145.778 179.881 145.392 179.881 144.907C179.881 144.422 180.04 144.027 180.357 143.722C180.675 143.416 181.09 143.264 181.602 143.264H182.132C182.644 143.264 183.059 143.416 183.377 143.722C183.695 144.027 183.854 144.422 183.854 144.907C183.854 145.392 183.695 145.778 183.377 146.066C183.059 146.353 182.644 146.497 182.132 146.497H181.602Z" fill="#83F35D"/>
<path d="M195.871 163.876L191.129 149.057H193.566L196.665 159.026C196.983 160.05 197.275 161.047 197.54 162.016C197.804 161.047 198.096 160.05 198.414 159.026L201.434 149.057H203.844L199.102 163.876H195.871Z" fill="#83F35D"/>
<path d="M207.543 163.876V161.666H212.708V151.266H208.205V149.057H215.092V161.666H219.993V163.876H207.543ZM213.371 146.497C212.841 146.497 212.417 146.353 212.099 146.066C211.799 145.778 211.649 145.392 211.649 144.907C211.649 144.422 211.808 144.027 212.126 143.722C212.443 143.416 212.858 143.264 213.371 143.264H213.9C214.413 143.264 214.828 143.416 215.145 143.722C215.463 144.027 215.622 144.422 215.622 144.907C215.622 145.392 215.463 145.778 215.145 146.066C214.828 146.353 214.413 146.497 213.9 146.497H213.371Z" fill="#83F35D"/>
<path d="M230.844 163.876C229.59 163.876 228.61 163.534 227.904 162.852C227.215 162.169 226.87 161.208 226.87 159.969V151.266H222.764V149.057H226.87V145.015H229.255V149.057H235.083V151.266H229.255V159.969C229.255 160.544 229.378 160.975 229.626 161.262C229.89 161.532 230.297 161.666 230.844 161.666H234.818V163.876H230.844Z" fill="#83F35D"/>
<path d="M241.986 168.725L244.132 162.96L238.781 149.057H241.43L244.688 158.217C244.865 158.738 245.068 159.457 245.298 160.373C245.51 159.457 245.704 158.738 245.88 158.217L248.927 149.057H251.496L244.529 168.725H241.986Z" fill="#83F35D"/>
</svg>
