<?xml version="1.0" encoding="utf-8"?>
<!-- Generator: Adobe Illustrator 23.0.5, SVG Export Plug-In . SVG Version: 6.00 Build 0)  -->
<svg version="1.1" id="Layer_1" xmlns="http://www.w3.org/2000/svg" xmlns:xlink="http://www.w3.org/1999/xlink" x="0px" y="0px"
	 viewBox="0 0 50.6 64.8" style="enable-background:new 0 0 50.6 64.8;" xml:space="preserve">
<style type="text/css">
	.st0{fill-rule:evenodd;clip-rule:evenodd;fill:#83F35D;}
</style>
<path class="st0" d="M25.6,47.7c-0.6,0-1.2-0.1-1.7-0.3s-1-0.6-1.5-1c-0.4-0.4-0.7-0.9-1-1.5c-0.2-0.5-0.3-1.1-0.3-1.7V43h-4.6v0.1
	c0,2.4,1,4.7,2.7,6.4s4,2.7,6.4,2.7s4.7-1,6.4-2.7s2.7-4,2.7-6.4V43h-4.6v0.1c0,0.6-0.1,1.2-0.3,1.7c-0.2,0.5-0.6,1-1,1.5
	s-0.9,0.7-1.5,1C26.8,47.5,26.2,47.7,25.6,47.7L25.6,47.7z M16.8,19.2c-1.3,0-2.6,0.4-3.6,1.1c-1.1,0.7-1.9,1.7-2.4,2.9
	c-0.5,1.2-0.6,2.5-0.4,3.8c0.3,1.3,0.9,2.4,1.8,3.4c0.9,0.9,2.1,1.5,3.4,1.8c1.3,0.3,2.6,0.1,3.8-0.4c1.2-0.5,2.2-1.3,2.9-2.4
	c0.7-1.1,1.1-2.3,1.1-3.6c0-0.9-0.2-1.7-0.5-2.5s-0.8-1.5-1.4-2.1s-1.3-1.1-2.1-1.4C18.5,19.3,17.7,19.2,16.8,19.2z M14.7,25.7
	c0-0.4,0.1-0.8,0.3-1.2c0.2-0.3,0.6-0.6,0.9-0.8c0.4-0.2,0.8-0.2,1.2-0.1c0.4,0.1,0.8,0.3,1.1,0.6c0.3,0.3,0.5,0.7,0.6,1.1
	s0,0.8-0.1,1.2c-0.2,0.4-0.4,0.7-0.8,0.9c-0.3,0.2-0.7,0.4-1.2,0.4c-0.6,0-1.1-0.2-1.5-0.6C14.9,26.8,14.7,26.3,14.7,25.7z
	 M5.7,14.2c12.6-4,17.4-6.5,19.6-7.7c2.2,1.2,7,3.7,19.6,7.7c0,1.4,0.8,45-19.6,44.9C4.9,59,5.7,15.6,5.7,14.2z M25.3,64.8
	c26.3,0.1,25.3-53,25.3-54.9C34.3,4.8,28.1,1.6,25.3,0c-2.8,1.6-9,4.8-25.3,10C0,11.8-1,64.9,25.3,64.8z M27.4,23.3v4.4h12.7v-4.4
	H27.4z"/>
</svg>
