<?xml version="1.0" encoding="UTF-8"?><!DOCTYPE svg PUBLIC "-//W3C//DTD SVG 1.1//EN" "http://www.w3.org/Graphics/SVG/1.1/DTD/svg11.dtd"><svg xmlns="http://www.w3.org/2000/svg"><defs>
        <style>
            .cls-1{fill:#fff}
        </style>
    
        <style>
            .cls-1{fill:#f8f8f8;fill-rule:evenodd;filter:url(#filter)}
        </style>
        <filter id="filter" x="181" y="906" width="19" height="13.969" filterUnits="userSpaceOnUse">
            <feFlood result="flood" flood-color="#fff"/>
            <feComposite result="composite" operator="in" in2="SourceGraphic"/>
            <feBlend result="blend" in2="SourceGraphic"/>
        </filter>
    </defs><symbol id="icon-arrow2-l" viewBox="0 0 18 34">
    <path d="M17 1L1 17l16 16"/>
</symbol><symbol id="icon-arrow2-r" viewBox="0 0 18 34">
    <path d="M1 1l16 16L1 33"/>
</symbol><symbol id="icon-discord" viewBox="0 0 30 20.5">
    <style>
        .st0{fill:#5c6bc0}.st1{fill:#7785f2}
    </style>
    <path class="st0" d="M19.2 0h.1z"/>
    <path class="st1" d="M6 16.2c6.8 2.7 12.4 3.4 18.9-.7 0 0-1.2 1.9-4.6 2.9.7.9 1.6 2 1.6 2 5.7-.1 7.9-3.7 8-3.5C30 9 26.2 2.6 26.2 2.6 22.9.1 19.8 0 19.2 0l-.4.4c4.3 1.2 6.4 3.1 6.4 3.1C14-2 4.8 3.4 4.6 3.4c0 0 2.1-2 6.6-3.1l-.3-.3S7.4-.1 3.7 2.6C3.7 2.6 0 9 0 16.9c0 0 2.1 3.5 7.7 3.7 0 0 .8-1.1 1.7-2-3.2-1-4.4-2.9-4.4-2.9l1 .5zm4.2-1.8c-1.4 0-2.6-1.2-2.6-2.7 0-1.5 1.2-2.7 2.6-2.7 1.4 0 2.6 1.2 2.6 2.7 0 1.5-1.1 2.7-2.6 2.7zm9.4 0c-1.4 0-2.6-1.2-2.6-2.7 0-1.5 1.2-2.7 2.6-2.7 1.5 0 2.6 1.2 2.6 2.7 0 1.5-1.1 2.7-2.6 2.7z"/>
</symbol><symbol id="icon-equal" viewBox="0 0 24 24">
    
    <path class="cls-1" d="M0 3h24v6H0z"/>
    <path class="cls-1" d="M0 15h24v6H0z"/>
</symbol><symbol id="icon-fb" viewBox="0 0 32 32">
    <path d="M16 3.2C8.93 3.2 3.2 8.965 3.2 16.078c0 6.426 4.675 11.751 10.794 12.721v-8.996h-3.248v-3.725h3.248V13.24c0-3.225 1.908-5.01 4.832-5.01h.008c1.402 0 2.868.255 2.868.255v3.168h-1.613c-1.592 0-2.083.995-2.083 2.01v2.414h3.549l-.568 3.725h-2.981V28.8c6.116-.967 10.794-6.294 10.794-12.722C28.8 8.965 23.07 3.2 16 3.2z"/>
</symbol><symbol id="icon-gh" viewBox="0 0 19 18.6">
    <path d="M9.5 0c5.1.1 9.2 4.4 9.1 9.5-.1 5.1-4.4 9.2-9.5 9.1C4 18.5 0 14.4 0 9.3.1 4.1 4.3-.1 9.5 0zm3.3 18.1s-.9.1-.9-.4v-3c0-.5-.3-1-.6-1.3 0 0 4.3-.1 4.4-4.2.1-1.1-.3-2.1-1-2.9.3-.8.3-1.7-.1-2.5 0 0-.7-.3-2.6.9-1.6-.4-3.2-.5-4.8 0-.9-.5-1.8-.8-2.7-.9-.4.8-.4 1.7-.1 2.5C3.7 7 3.3 8 3.4 9c.1 1.8.4 4 4.3 4.4-.4.3-.6.8-.6 1.2-.8.4-1.8.3-2.4-.4 0 0-1-1.8-2.2-1.2v.2c.2.2.3.3.5.4.2.2.5.5.6.8.2.1.4.7.4.7.4.6 1 .9 1.7.9.5.1 1 0 1.4-.1v1.8s0 .6-1.1.2 1.5 1 1.5 1h3.1l2.2-.8z"/>
</symbol><symbol id="icon-in" viewBox="0 0 510 510">
    <path d="M459 0H51C22.95 0 0 22.95 0 51v408c0 28.05 22.95 51 51 51h408c28.05 0 51-22.95 51-51V51c0-28.05-22.95-51-51-51zM153 433.5H76.5V204H153v229.5zm-38.25-272.85c-25.5 0-45.9-20.4-45.9-45.9s20.4-45.9 45.9-45.9 45.9 20.4 45.9 45.9-20.4 45.9-45.9 45.9zM433.5 433.5H357V298.35c0-20.399-17.85-38.25-38.25-38.25s-38.25 17.851-38.25 38.25V433.5H204V204h76.5v30.6c12.75-20.4 40.8-35.7 63.75-35.7 48.45 0 89.25 40.8 89.25 89.25V433.5z" data-original="#000000"/>
</symbol><symbol id="icon-instagram" viewBox="0 0 14 15">
    <path d="M6.998 4.888a2.34 2.34 0 0 0-2.334 2.338 2.34 2.34 0 0 0 2.334 2.337 2.34 2.34 0 0 0 2.335-2.337 2.34 2.34 0 0 0-2.335-2.338zM14 7.226c0-.968.01-1.927-.045-2.893-.054-1.123-.31-2.119-1.13-2.94C12.004.572 11.01.318 9.89.264 8.923.208 7.965.217 7 .217c-.967 0-1.925-.009-2.89.046-1.12.054-2.115.31-2.934 1.13C.354 2.217.1 3.21.046 4.334-.008 5.3.001 6.26.001 7.226c0 .966-.01 1.927.045 2.893.054 1.122.31 2.118 1.13 2.939.82.822 1.814 1.077 2.935 1.131.966.054 1.924.046 2.889.046.967 0 1.925.008 2.89-.046 1.12-.054 2.115-.31 2.934-1.131.822-.822 1.076-1.817 1.13-2.939.056-.966.045-1.925.045-2.893zm-7 3.596a3.589 3.589 0 0 1-3.592-3.596 3.589 3.589 0 0 1 3.591-3.597 3.589 3.589 0 0 1 3.592 3.597 3.589 3.589 0 0 1-3.592 3.596zm3.738-6.5a.838.838 0 0 1-.839-.84.838.838 0 1 1 1.614.322.84.84 0 0 1-.775.518z"/>
</symbol><symbol id="icon-mastodon" viewBox="0 0 24 24">
    <path d="M1.004 7.879c0 6.197-.347 13.894 5.559 15.486 2.132.574 3.964.696 5.438.61 2.674-.15 4.175-.969 4.175-.969l-.09-1.977s-1.911.61-4.059.54c-2.127-.075-4.37-.235-4.717-2.892a5.514 5.514 0 0 1-.047-.745c4.507 1.12 8.349.488 9.408.359 2.954-.359 5.528-2.212 5.855-3.905.515-2.667.474-6.508.474-6.508 0-5.206-3.353-6.733-3.353-6.733-3.291-1.537-12.029-1.521-15.288 0-.002.002-3.355 1.528-3.355 6.734zm4.923-2.667c1.363-1.548 4.201-1.65 5.465.327l.611 1.044.611-1.044c1.269-1.987 4.112-1.864 5.465-.327 1.248 1.463.969 2.838.969 9.373H16.593V8.469c0-2.662-3.369-2.764-3.369.369v3.348h-2.437V8.838c0-3.133-3.369-3.031-3.369-.369v6.117H4.959c0-6.54-.274-7.922.968-9.374z"/>
</symbol><symbol id="icon-md" viewBox="0 0 72.4 72.3">
    <path d="M0 0h72.4v72.3H0V0zm17.2 46.8L11.4 54v.8H26V54l-5.9-7.1V27l12.8 27.8h1.6l10.9-28v22.9L41 54.1v.9h19.2l.1-.8L56 50V21l4.3-4.2V16H46.9l-9.7 24-10.9-24H12v.8l5.2 6.3v23.7z" fill-rule="evenodd" clip-rule="evenodd"/>
</symbol><symbol id="icon-med" viewBox="0 0 72.4 72.3">
    <path d="M0 0h72.4v72.3H0V0zm17.2 46.8L11.4 54v.8H26V54l-5.9-7.1V27l12.8 27.8h1.6l10.9-28v22.9L41 54.1v.9h19.2l.1-.8L56 50V21l4.3-4.2V16H46.9l-9.7 24-10.9-24H12v.8l5.2 6.3v23.7z" fill-rule="evenodd" clip-rule="evenodd"/>
</symbol><symbol id="icon-p-close" viewBox="0 0 14 14">
    <path d="M1 13L13 1M1 1l12 12" stroke-width="2" stroke-linecap="round" stroke-linejoin="round"/>
</symbol><symbol id="icon-p-marker" viewBox="0 0 28 35">
    <path fill-rule="evenodd" clip-rule="evenodd" d="M23.9 4.48c5.467 5.467 5.467 14.331 0 19.798l-9.9 9.9-9.9-9.9c-5.467-5.467-5.467-14.331 0-19.799 5.468-5.467 14.332-5.467 19.8 0zM14 18.378a4 4 0 1 0 0-8 4 4 0 0 0 0 8z"/>
</symbol><symbol id="icon-p-notification" viewBox="0 0 18 22">
    <path d="M0 19v-2.167s2.272-.109 2.272-2.186V7.733S2.25 2 8.685 2c5.674 0 7.057 3.167 7.057 5.525v7.507s-.17 1.81 2.258 1.81V19H0z"/>
    <path d="M10 3V1.109c0-.294-.105-.576-.293-.784A.953.953 0 0 0 9 0a.953.953 0 0 0-.707.325C8.105.533 8 .815 8 1.109v1.855"/>
    <path d="M11 20a2.144 2.144 0 0 1-.618 1.42c-.372.372-.867.58-1.382.58-.515 0-1.01-.208-1.382-.58A2.143 2.143 0 0 1 7 20"/>
</symbol><symbol id="icon-p-stars" viewBox="0 0 24 27">
    <path d="M13.375 5c-1 6.5-6.667 8.958-9.375 9.375V15c6.5 1 8.958 7.083 9.375 10H14c1.5-7.5 7.083-9.792 10-10v-.625c-7-.5-9.375-6.458-10-9.375h-.625z"/>
    <path d="M4.281 20c-.35 2.275-2.333 3.135-3.281 3.281v.219c2.275.35 3.135 2.48 3.281 3.5H4.5c.525-2.625 2.48-3.427 3.5-3.5v-.219c-2.45-.175-3.281-2.26-3.5-3.281h-.219z"/>
    <path d="M4.688 0C4.188 3.25 1.353 4.48 0 4.688V5c3.25.5 4.48 3.542 4.688 5H5c.75-3.75 3.542-4.896 5-5v-.313C6.5 4.438 5.312 1.458 5 0h-.313z"/>
</symbol><symbol id="icon-portal" viewBox="0 0 39.4 50">
    <path d="M19.9 37.5c-1.9 0-3.5-1.5-3.5-3.4V34h-3.6v.1c0 3.9 3.3 7 7.2 7 3.8 0 6.9-3.1 7-7V34h-3.6v.1c0 1.9-1.6 3.4-3.5 3.4zM21.3 18h9.9v3.4h-9.9V18zM4.5 10.9C14.3 7.8 18 5.9 19.7 5c1.7.9 5.4 2.8 15.2 5.9 0 1.1.6 34.7-15.2 34.6C3.8 45.6 4.5 12 4.5 10.9zM19.7 50C40.2 50 39.4 9.1 39.4 7.7 26.7 3.7 21.9 1.2 19.7 0c-2.2 1.2-7 3.7-19.7 7.7C0 9.1-.8 50 19.7 50zM13 14.8c-2.8 0-5 2.3-5 5.1s2.3 5 5.1 5 5-2.3 5-5c0-2.9-2.3-5.1-5.1-5.1zm-1.6 5c0-.9.7-1.6 1.6-1.6s1.6.7 1.6 1.6-.7 1.6-1.6 1.6c-.9 0-1.6-.7-1.6-1.6z"/>
</symbol><symbol id="icon-site" viewBox="0 0 34 34">
    <path data-name="Rounded Rectangle 1 copy" class="jcls-1" d="M30.2 12.1l.3.2h.281v-.5l.887-.1.843.6H33.9l.1-.1c-.139-.4-.295-.9-.47-1.3h-.9l-.454-.5-.087-.8-.465.3-.249.9-.671-.7-.027-.6-.647-.6-.239-.2h-.75l.236.6.9.5.157.2-.2.1.009.5-.44.2-.376-.1-.235-.3h.612l.165-.2-1.355-.9-.1-.4-.55.5-.557-.1-.849 1.1-.168.4h-1.346l-.481-.2-.142-.9.173-.5.818-.1.892.1.109-.4-.379-.1.129-.8.9-.1.628-.9.648-.1.585.1h.216l-.12-.8-.71.3-.251-.7h-.413l-.077-.4.336-.4.8-.3.206-.4A17.664 17.664 0 0 0 17.353 0a17.154 17.154 0 0 0-10.2 3.3l.876-.1.39.3.735.1.057.3h1.169l-.159-.3-1.038-.1.244-.2-.085-.2h-.938l1.023-.8h.981l.461.6.765.1.461-.5.347.2-.636.6h-.836a2.861 2.861 0 0 1 .073.6h1.066l.115-.3h.735l.087-.5h-.432l.144-.4.331-.1h1.154l-.636.6.1.4.663.1-.043-.7.635-.4 1.125-.1 1.629.7v.6l.519.1-.26.5h-.736l-.218.6-1.679-.4 1.321-.7-.5-.4-1.139.1-.1.1H14.9l-.328.4h-.543l.043.3.19.1h-.008l-.441.1-.033.3h-.421l-.077-.5-.756.2-1.547.9.174.6.432.3.865.1v1l.4-.1.369-.7.919-.3V5.2l.512-.4 1.236.3-.086.8h.332l.909-.4.044 1 .661.3-.028.6-.633.3.043.2.764.3-.016.4h-.223l-.964-.3-.041-.3.282-.2v-.3h-.3l-.076.2-.531.1h-.237l-.151-.3h-.552l-.172.1v.3l.324.1.32.1h-.072l-.292.3-.128-.1-.282-.1-.769.7.1.1-1.135.6-1.067 1.1-.073.5-1.07.7-.531.5.059 1-.735-.3v-.6H7.513l-1.06.5-.46.8-.183.7.3.6.835.1 1.327-.8.117.4-.406.7 1.011.2.1 1.5 1.384.3.88-1 1.068.2.375.5 1.023-.1.029-.3.563.3.635 1h1.1l.4.7.058.8 1.212.5h1.528l.448.7.677.2-.13.6-.742 1-.217 2-.67.5h-1l-.331.6.246 1-1.083 1.4-.345.6-1.032.5-.678.1-.028.3.476.1-.057.3-.427.4.259.3h.513l-.028.4-.137.4-.044.3.759.6-.1.4-1.033-.1-1.027-.8-.8-1.4.112-1.3-.606-.8.245-1.4-.36-.1V24s-1.009-.7-1.067-.7a5.3 5.3 0 0 1-.534-.2l-.1-.5L9.196 21l.13-.6.043-.9.909-.7-.13-1-1.327-.1-1.038-1.2-.735-.2-.476-.1.058-.4-.606-.1v.3l-1.515-.4-.61-.9.248-.5-.959-1.3-.164-1h-.389l.129.9.663 1-.073.4H2.8L2.108 13v-1.3l-.721-.4v-1A16.907 16.907 0 0 0 0 17a17.182 17.182 0 0 0 17.354 17 17.58 17.58 0 0 0 13.459-6.3h-.572v-1.1l-.663-.9v-1.3l-.5-.5-.045-.6.643-1.2-1.217-2.1.142-1.4-1.1-.2-.4-.3h-.736l-.374.3h-1.3l-.044.1h-.727l-1.657-1.8.014-1.5.274-.1.1-.5h-.39l-.159-.6 1.917-1.4v-.9l.939-.5h1.152l.605-.3 1.947-.2v1zM25.332 6l.158-.2.571-.1.142.6.3.5.2.3.367.1-.346.4-.671.1h-.5l.057-.6.419-.1-.035-.3-.391-.2-.273-.2V6zm-.937 1.1l.347-.6.467-.1.332.2-.03.3-.714.5h-.4v-.3zm-9.428 2.1h-.362l.02-.2.161-.2.217.1zm1.266-.5l-.246.1-.05.2-.19.1h-.3a.318.318 0 0 1-.017-.1h-.118v-.2h.5l.1-.3h.423z"/>
</symbol><symbol id="icon-spatial" viewBox="0 0 18.7 30">
    <style>
        .st0{fill:url(#SVGID_1_)}.st1{fill:url(#SVGID_2_)}.st2{fill:#48b2f3}.st3{fill:#3d5bf2}.st4{fill:#099}
    </style>
    <linearGradient id="SVGID_1_" gradientUnits="userSpaceOnUse" x1="-239.302" y1="262.373" x2="-239.459" y2="262.26" gradientTransform="matrix(70.7064 -99.1267 -69.6801 -49.7024 35208.73 -10675.46)">
        <stop offset="0" stop-color="#2282ff" stop-opacity=".99"/>
        <stop offset="1" stop-color="#27e2e3"/>
    </linearGradient>
    <path class="st0" d="M6.8 18.5L.5 27.4l6.3-8.9z"/>
    <linearGradient id="SVGID_2_" gradientUnits="userSpaceOnUse" x1="-239.237" y1="262.282" x2="-239.393" y2="262.17" gradientTransform="matrix(70.7064 -99.1267 -69.6801 -49.7024 35208.73 -10675.46)">
        <stop offset="0" stop-color="#2282ff" stop-opacity=".99"/>
        <stop offset="1" stop-color="#27e2e3"/>
    </linearGradient>
    <path class="st1" d="M18.2 2.6l-2 2.8z"/>
    <path class="st2" d="M11.2 11C8 8.7 6.6 5 7.1 1.4c-1.3.7-2.4 1.7-3.3 2.9C.7 8.7 1.7 14.9 6.1 18l.7.5.7.5c3.2 2.3 4.6 6 4 9.6 1.3-.7 2.4-1.7 3.3-2.9C18 21.3 17 15.1 12.6 12l-.7-.5-.7-.5z"/>
    <path class="st3" d="M18.7 2.3l-.8-.6C14.8-.5 10.8-.6 7.7 1.1c-.6 3.6.9 7.3 4 9.6l.7.5 4.3-6 2-2.9z"/>
    <path class="st4" d="M7 19.3l-.7-.5L0 27.7l.7.5c3.2 2.3 7.2 2.4 10.4.7.5-3.6-.9-7.4-4.1-9.6z"/>
</symbol><symbol id="icon-tiktok" viewBox="0 0 13 15">
    <path d="M11.499 3.5A3.354 3.354 0 0 1 8.859.527v-.31H6.45v9.582a2.032 2.032 0 0 1-1.383 1.918 2.024 2.024 0 0 1-2.67-1.888 2.03 2.03 0 0 1 1.38-1.959c.409-.137.85-.14 1.26-.01V5.406A4.425 4.425 0 0 0 .475 7.802 4.44 4.44 0 0 0 1.26 12.9 4.429 4.429 0 0 0 8.86 9.8V4.902a5.721 5.721 0 0 0 3.34 1.07v-2.4c-.235 0-.47-.024-.701-.072z"/>
</symbol><symbol id="icon-tw" viewBox="0 0 32 32">
    <path d="M23.361 4h3.926L18.71 14.166 28.8 28h-7.9l-6.187-8.39L7.633 28H3.705l9.173-10.874L3.2 4h8.1l5.593 7.669L23.36 4zm-1.377 21.563h2.175L10.119 6.31H7.783l14.2 19.254z"/>
</symbol><symbol id="icon-vertical-scroll" viewBox="0 0 368.416 368.416">
    <path d="M240.404 59.633a9.965 9.965 0 0 0 6.971-2.838v37.364c0 5.523 4.477 10 10 10s10-4.477 10-10V56.795c3.914 3.81 10.169 3.781 14.041-.091 3.905-3.905 3.906-10.237.001-14.142l-16.97-16.971a10.001 10.001 0 0 0-14.142 0l-16.971 16.971c-3.905 3.905-3.905 10.237 0 14.143a9.967 9.967 0 0 0 7.07 2.928z"/>
    <path d="M271.941 154.193c-5.573 0-11.22 1.072-16.508 3.065-7.351-14.431-22.344-24.338-39.604-24.338-6.153 0-12.015 1.165-17.344 3.271-7.494-14.005-22.274-23.558-39.244-23.558a44.62 44.62 0 0 0-12.393 1.743l.009-12.671.03-41.446c.008-11.29.012-16.444-.035-19.073h.045c0-11.625-5.34-22.752-14.651-30.529C124.02 3.785 113.509 0 102.653 0 78.131 0 58.182 19.95 58.182 44.472v135.569c-16.375 5.479-30.829 20.592-31.436 42.169-.95 33.753 1.817 76.463 31.894 107.397 25.39 26.115 65.127 38.809 121.481 38.809 50.684 0 88.169-14.908 111.414-44.311 16.326-20.651 24.956-48.48 24.956-80.48l-.078-44.995c0-24.487-19.951-44.437-44.472-44.437zm-91.82 194.223c-119.309 0-135.216-60.477-133.383-125.644.442-15.717 13.954-25 25-25v28.823c0 3.625 2.514 4.047 3.264 4.047s3.18-.412 3.18-4.038V44.472C78.182 30.957 89.138 20 102.653 20c12.401 0 24.246 8.958 24.246 21.188.008.045-.064 89.86-.076 111.957-.001.046-.014.089-.014.135v4.617a3.986 3.986 0 0 0 7.97 0v-1.194c.217-13.328 11.083-24.067 24.463-24.067 13.515 0 24.472 10.957 24.472 24.473l.019 17.721a3.925 3.925 0 1 0 7.848 0l-.008-1.014c0-12.305 11.957-20.894 24.256-20.894 13.517 0 24.422 10.956 24.422 24.472l.049 17.937a3.82 3.82 0 0 0 7.637 0l-.014-1.365c0-11.19 12.108-19.77 24.017-19.77 13.514 0 24.472 10.957 24.472 24.472l.078 44.96c.001 41.812-16.262 104.788-116.369 104.788z"/>
</symbol><symbol id="icon-video" viewBox="0 0 94 94">
    <style>
        .st0{fill:#0f1108;fill-opacity:.3;stroke:#0f0;stroke-width:3}.st1{fill:#0f0}
    </style>
    <circle class="st0" cx="47" cy="47" r="45.5"/>
    <path class="st1" d="M62.1 48.9c2.2-1.3 2.2-3.4 0-4.7L42 32.6c-2.2-1.3-4-.2-4 2.4v23.2c0 2.6 1.8 3.6 4.1 2.3l20-11.6z"/>
</symbol><symbol id="icon-yb" viewBox="0 0 19 13.969">
    
    <path id="Rounded_Rectangle_1" data-name="Rounded Rectangle 1" class="cls-1" d="M183.949 906.182s3.265-.193 6.534-.193 6.56.193 6.56.193a2.842 2.842 0 0 1 2.766 2.914s.185 1.943.185 3.887-.185 3.885-.185 3.885a2.844 2.844 0 0 1-2.766 2.913s-3.3.2-6.586.2c-3.261 0-6.508-.2-6.508-.2a2.844 2.844 0 0 1-2.766-2.913S181 914.9 181 912.954c0-1.931.185-3.858.185-3.858a2.842 2.842 0 0 1 2.764-2.914zm4.842 3.977v6.16l4.872-3.077z" transform="translate(-181 -906)"/>
</symbol></svg>